<?xml version="1.0" encoding="iso-8859-1"?>
<!-- Uploaded to: SVG Repo, www.svgrepo.com, Generator: SVG Repo Mixer Tools -->
<svg version="1.1" id="Layer_1" xmlns="http://www.w3.org/2000/svg" xmlns:xlink="http://www.w3.org/1999/xlink" 
	 viewBox="0 0 512.008 512.008" xml:space="preserve">
<rect x="421.578" y="286.35" transform="matrix(0.5 -0.866 0.866 0.5 -48.8184 555.7858)" style="fill:#8CC0C5;" width="70.689" height="67.642"/>
<rect x="202.196" y="32.686" transform="matrix(0.5 -0.866 0.866 0.5 -48.8492 341.5436)" style="fill:#6FB0B6;" width="138.339" height="360.781"/>
<rect x="-7.12" y="69.883" transform="matrix(0.5 -0.866 0.866 0.5 -48.832 125.8729)" style="fill:#538489;" width="183.429" height="70.689"/>
<path style="fill:#573A32;" d="M311.17,330.688l64.393,37.18c3.925,2.27,8.346,3.43,12.8,3.43c2.219,0,4.446-0.29,6.622-0.87
	c6.554-1.758,12.151-6.05,15.548-11.93l4.113-7.117l36.412,21.018c3.925,2.27,8.346,3.43,12.8,3.43c2.219,0,4.446-0.29,6.622-0.87
	c6.562-1.758,12.151-6.05,15.548-11.93l22.545-39.049c7.074-12.245,2.876-27.904-9.37-34.97l-36.412-21.026l4.113-7.117
	c7.074-12.245,2.876-27.904-9.37-34.97L166.743,58.014c2.21-5.222,3.046-10.94,1.562-16.478c-1.758-6.554-6.05-12.151-11.93-15.548
	L117.318,3.443c-4.028-2.33-8.431-3.439-12.774-3.439c-8.849,0-17.451,4.591-22.195,12.809L3.432,149.5
	c-3.396,5.879-4.318,12.868-2.56,19.422c1.758,6.562,6.05,12.151,11.93,15.548l39.057,22.545c4.028,2.33,8.431,3.43,12.774,3.43
	c7.859,0,15.369-3.797,20.309-10.368l56.064,32.367c0.964,53.777,38.852,98.517,89.395,110.072v143.889h-89.6
	c-7.074,0-12.8,5.726-12.8,12.8s5.726,12.8,12.8,12.8h204.8c7.074,0,12.8-5.726,12.8-12.8s-5.726-12.8-12.8-12.8h-89.6v-140.8
	C276.183,345.604,294.803,339.955,311.17,330.688z M486.393,311.172l-22.545,39.057l-36.412-21.026l22.545-39.049L486.393,311.172z
	 M64.659,184.845L25.602,162.3l78.916-136.695l39.057,22.545L64.659,184.845z M98.101,178.12l56.371-97.63l290.253,167.578
	l-56.371,97.63L98.101,178.12z M169.116,248.674l115.012,66.406c-8.832,3.063-18.219,4.924-28.126,4.924
	C212.951,320.004,177.615,289.241,169.116,248.674z"/>
</svg>